<svg width="31" height="31" viewBox="0 0 31 31" fill="none" xmlns="http://www.w3.org/2000/svg">
<path d="M27.125 7.72396C22.8237 7.29771 18.4967 7.07812 14.1825 7.07812C11.625 7.07812 9.0675 7.20729 6.51 7.46563L3.875 7.72396" stroke="#FF0037" stroke-width="1.5" stroke-linecap="round" stroke-linejoin="round"/>
<path d="M10.979 6.41975L11.2632 4.72766C11.4698 3.50058 11.6248 2.5835 13.8078 2.5835H17.1919C19.3748 2.5835 19.5428 3.55225 19.7365 4.74058L20.0207 6.41975" stroke="#FF0037" stroke-width="1.5" stroke-linecap="round" stroke-linejoin="round"/>
<path d="M24.3479 11.8057L23.5084 24.8127C23.3663 26.8407 23.25 28.4165 19.6463 28.4165H11.3538C7.75002 28.4165 7.63377 26.8407 7.49168 24.8127L6.6521 11.8057" stroke="#FF0037" stroke-width="1.5" stroke-linecap="round" stroke-linejoin="round"/>
<path d="M13.343 21.3125H17.6443" stroke="#FF0037" stroke-width="1.5" stroke-linecap="round" stroke-linejoin="round"/>
<path d="M12.271 16.146H18.7293" stroke="#FF0037" stroke-width="1.5" stroke-linecap="round" stroke-linejoin="round"/>
</svg>
